<?xml version="1.0" encoding="UTF-8"?>
<svg width="25px" height="25px" viewBox="0 0 25 25" version="1.1" xmlns="http://www.w3.org/2000/svg" xmlns:xlink="http://www.w3.org/1999/xlink">
    <!-- Generator: Sketch 42 (36781) - http://www.bohemiancoding.com/sketch -->
    <title>key</title>
    <desc>Created with Sketch.</desc>
    <defs>
        <linearGradient x1="50%" y1="2.09462691%" x2="50%" y2="96.8331473%" id="linearGradient-1">
            <stop stop-color="#FF9400" offset="0%"></stop>
            <stop stop-color="#FF5F39" offset="100%"></stop>
        </linearGradient>
    </defs>
    <g id="Page-1" stroke="none" stroke-width="1" fill="none" fill-rule="evenodd">
        <g id="Filled" transform="translate(-100.000000, -250.000000)" fill="url(#linearGradient-1)">
            <g id="key" transform="translate(100.000000, 250.000000)">
                <path d="M21,6 C21,4.897 20.103,4 19,4 C17.897,4 17,4.897 17,6 C17,7.103 17.897,8 19,8 C20.103,8 21,7.103 21,6 M25,8 C25,12.411 21.411,16 17,16 C16.037,16 15.1,15.832 14.208,15.499 L10.854,18.854 C10.76,18.947 10.633,19 10.5,19 L8,19 L8,21.5 C8,21.776 7.776,22 7.5,22 L5,22 L5,24.5 C5,24.776 4.776,25 4.5,25 L0.5,25 C0.224,25 0,24.776 0,24.5 L0,20.5 C0,20.359 0.06,20.225 0.164,20.13 L9.762,11.405 C9.263,10.344 9,9.175 9,8 C9,3.589 12.589,0 17,0 C21.411,0 25,3.589 25,8 M20,6 C20,6.551 19.552,7 19,7 C18.448,7 18,6.551 18,6 C18,5.449 18.448,5 19,5 C19.552,5 20,5.449 20,6" id="Page-1"></path>
            </g>
        </g>
    </g>
</svg>